# xmcd
#
# Track frame offsets:
#	150
#	21622
#	41680
#	53885
#	67342
#	95637
#	116805
#	138612
#	164642
#	176545
#
# Disc length: 2524 seconds
#
# Revision: 2
# Processed by: cddbd v1.4PL0 Copyright (c) Steve Scherf et al.
# Submitted via: audiograbber 1.80
#
DISCID=9f09da0a
DTITLE=Various Artist - Rhythm and Blues - Volume 2
DYEAR=1900
DGENRE=
TTITLE0=Billy Paul - Me and Mrs. Jones
TTITLE1=The Manhattans - Kiss And Say Goodbye
TTITLE2=Aretha Franklin - Runnin' Out Of Fools
TTITLE3=Three Degrees - When Will I See You Again?
TTITLE4=The O'Jays - Love Train
TTITLE5=Gladys Knight - Save The Overtime (For Me)
TTITLE6=Clarence Clemons - You're A Friend Of Mine
TTITLE7=M.F.S.B. - T.S.O.P. (The Sound Of Philadelphia)
TTITLE8=Johnny Ray - Just Walking In The Rain
TTITLE9=Earth, Wind and Fire - Shining Star
EXTD=
EXTT0=Billy Paul\n
EXTT1=The Manhattans\n
EXTT2=Aretha Franklin
EXTT3=Three Degrees
EXTT4=The O'Jays
EXTT5=Gladys Knight
EXTT6=Clarence Clemons
EXTT7=M.F.S.B.
EXTT8=Johnny Ray
EXTT9=Earth, Wind and Fire
PLAYORDER=
